<svg xmlns="http://www.w3.org/2000/svg" xmlns:xlink="http://www.w3.org/1999/xlink" width="500" zoomAndPan="magnify" viewBox="0 0 375 374.999991" height="500" preserveAspectRatio="xMidYMid meet" version="1.2"><defs><clipPath id="6658fb4cb0"><path d="M 45.429688 130.878906 L 71.679688 130.878906 L 71.679688 243.378906 L 45.429688 243.378906 Z M 45.429688 130.878906 "/></clipPath><clipPath id="b287cd2517"><path d="M 303.316406 130.878906 L 329.308594 130.878906 L 329.308594 243.378906 L 303.316406 243.378906 Z M 303.316406 130.878906 "/></clipPath></defs><g id="6be9d40dcf"><g clip-rule="nonzero" clip-path="url(#6658fb4cb0)"><path style=" stroke:none;fill-rule:nonzero;fill:#000000;fill-opacity:1;" d="M 71.621094 133.597656 L 71.621094 131.261719 C 66.914062 131.171875 61.628906 131.082031 55.832031 130.992188 C 54.390625 130.96875 52.902344 130.945312 51.414062 130.921875 C 50.65625 130.921875 49.902344 130.902344 49.125 130.902344 C 48.480469 130.902344 47.835938 130.902344 47.171875 130.878906 C 46.816406 130.878906 46.460938 130.878906 46.082031 130.878906 L 45.507812 130.878906 L 45.507812 131.394531 C 45.507812 132.632812 45.527344 133.871094 45.527344 135.128906 C 45.527344 135.9375 45.527344 136.75 45.527344 137.558594 C 45.527344 139.199219 45.527344 140.863281 45.527344 142.550781 C 45.507812 156.046875 45.507812 171.160156 45.484375 187.128906 C 45.507812 203.074219 45.507812 218.1875 45.527344 231.707031 C 45.527344 233.390625 45.527344 235.054688 45.527344 236.699219 C 45.527344 237.507812 45.527344 238.316406 45.527344 239.128906 C 45.527344 240.386719 45.507812 241.625 45.507812 242.859375 L 45.507812 243.378906 L 46.082031 243.378906 C 46.4375 243.378906 46.792969 243.378906 47.171875 243.378906 C 47.816406 243.378906 48.460938 243.378906 49.125 243.355469 C 49.902344 243.355469 50.65625 243.332031 51.414062 243.332031 C 52.921875 243.3125 54.390625 243.289062 55.832031 243.265625 C 61.605469 243.175781 66.914062 243.085938 71.621094 242.996094 L 71.621094 240.65625 C 66.914062 240.566406 61.628906 240.476562 55.832031 240.386719 C 54.390625 240.363281 52.902344 240.34375 51.414062 240.320312 C 50.65625 240.320312 49.902344 240.296875 49.125 240.296875 L 48.613281 240.296875 C 48.613281 240.296875 48.613281 240.273438 48.613281 240.25 L 48.636719 240.070312 L 48.636719 239.800781 C 48.636719 239.601562 48.636719 239.398438 48.660156 239.195312 C 48.683594 238.386719 48.703125 237.574219 48.703125 236.765625 C 48.726562 235.125 48.769531 233.460938 48.792969 231.773438 C 49.015625 218.253906 49.105469 203.140625 49.105469 187.171875 C 49.105469 171.203125 49.015625 156.089844 48.792969 142.574219 C 48.769531 140.886719 48.726562 139.222656 48.703125 137.582031 C 48.683594 136.769531 48.660156 135.9375 48.660156 135.152344 C 48.660156 134.949219 48.660156 134.746094 48.636719 134.542969 L 48.636719 134.273438 L 48.613281 134.09375 C 48.613281 134.070312 48.613281 134.050781 48.613281 134.050781 L 49.125 134.050781 C 49.902344 134.050781 50.65625 134.027344 51.414062 134.027344 C 52.921875 134.003906 54.390625 133.980469 55.832031 133.960938 C 61.628906 133.78125 66.914062 133.691406 71.621094 133.597656 Z M 71.621094 133.597656 "/></g><g style="fill:#004aad;fill-opacity:1;"><g transform="translate(58.685578, 215.174115)"><path style="stroke:none" d="M 2.78125 -68.09375 L 2.78125 -54.921875 L 8.8125 -54.921875 L 8.8125 -0.648438 L 2.78125 -0.648438 L 2.78125 12.523438 L 28.015625 12.523438 L 28.015625 -0.648438 L 21.988281 -0.648438 L 21.988281 -19.667969 L 26.53125 -19.667969 L 42.304688 12.523438 L 55.664062 12.523438 L 55.664062 -0.648438 L 50.097656 -0.648438 L 40.449219 -19.667969 L 44.808594 -19.667969 L 51.671875 -26.8125 L 51.671875 -61.507812 L 44.808594 -68.09375 Z M 38.5 -54.921875 L 38.5 -32.839844 L 21.988281 -32.839844 L 21.988281 -54.921875 Z M 38.5 -54.921875 "/></g></g><g style="fill:#004aad;fill-opacity:1;"><g transform="translate(117.130761, 215.174115)"><path style="stroke:none" d="M 2.78125 3.804688 L 10.855469 12.523438 L 37.015625 12.523438 L 45.644531 3.804688 L 45.644531 -59.375 L 37.203125 -68.09375 L 11.316406 -68.09375 L 2.78125 -59.375 Z M 32.46875 -54.921875 L 32.46875 -0.648438 L 15.957031 -0.648438 L 15.957031 -54.921875 Z M 32.46875 -54.921875 "/></g></g><g style="fill:#004aad;fill-opacity:1;"><g transform="translate(165.556764, 215.174115)"><path style="stroke:none" d="M 2.78125 3.804688 L 10.855469 12.523438 L 37.015625 12.523438 L 45.644531 3.804688 L 45.644531 -59.375 L 37.203125 -68.09375 L 11.316406 -68.09375 L 2.78125 -59.375 Z M 32.46875 -54.921875 L 32.46875 -0.648438 L 15.957031 -0.648438 L 15.957031 -54.921875 Z M 32.46875 -54.921875 "/></g></g><g style="fill:#004aad;fill-opacity:1;"><g transform="translate(213.982768, 215.174115)"><path style="stroke:none" d="M 2.78125 12.523438 L 28.015625 12.523438 L 28.015625 -0.648438 L 21.988281 -0.648438 L 21.988281 -8.441406 L 35.4375 -25.046875 L 48.425781 -0.648438 L 42.304688 -0.648438 L 42.304688 12.523438 L 68.742188 12.523438 L 68.742188 -0.648438 L 62.34375 -0.648438 L 43.789062 -34.976562 L 60.300781 -54.921875 L 65.773438 -54.921875 L 65.773438 -68.09375 L 37.664062 -68.09375 L 37.664062 -54.921875 L 44.34375 -54.921875 L 21.988281 -26.71875 L 21.988281 -54.921875 L 28.015625 -54.921875 L 28.015625 -68.09375 L 2.78125 -68.09375 L 2.78125 -54.921875 L 8.8125 -54.921875 L 8.8125 -0.648438 L 2.78125 -0.648438 Z M 2.78125 12.523438 "/></g></g><g style="fill:#004aad;fill-opacity:1;"><g transform="translate(285.508541, 215.174115)"><path style="stroke:none" d="M 2.78125 12.523438 L 28.015625 12.523438 L 28.015625 -0.648438 L 21.988281 -0.648438 L 21.988281 -54.921875 L 28.015625 -54.921875 L 28.015625 -68.09375 L 2.78125 -68.09375 L 2.78125 -54.921875 L 8.8125 -54.921875 L 8.8125 -0.648438 L 2.78125 -0.648438 Z M 2.78125 12.523438 "/></g></g><g clip-rule="nonzero" clip-path="url(#b287cd2517)"><path style=" stroke:none;fill-rule:nonzero;fill:#000000;fill-opacity:1;" d="M 303.371094 133.597656 L 303.371094 131.261719 C 308.078125 131.171875 313.363281 131.082031 319.160156 130.992188 C 320.601562 130.96875 322.089844 130.945312 323.578125 130.921875 C 324.335938 130.921875 325.089844 130.902344 325.867188 130.902344 C 326.511719 130.902344 327.15625 130.902344 327.820312 130.878906 C 328.175781 130.878906 328.53125 130.878906 328.910156 130.878906 L 329.484375 130.878906 L 329.484375 131.394531 C 329.484375 132.632812 329.464844 133.871094 329.464844 135.128906 C 329.464844 135.9375 329.464844 136.75 329.464844 137.558594 C 329.464844 139.199219 329.464844 140.863281 329.464844 142.550781 C 329.484375 156.046875 329.484375 171.160156 329.507812 187.128906 C 329.484375 203.074219 329.484375 218.1875 329.464844 231.707031 C 329.464844 233.390625 329.464844 235.054688 329.464844 236.699219 C 329.464844 237.507812 329.464844 238.316406 329.464844 239.128906 C 329.464844 240.386719 329.484375 241.625 329.484375 242.859375 L 329.484375 243.378906 L 328.910156 243.378906 C 328.554688 243.378906 328.199219 243.378906 327.820312 243.378906 C 327.175781 243.378906 326.53125 243.378906 325.867188 243.355469 C 325.089844 243.355469 324.335938 243.332031 323.578125 243.332031 C 322.070312 243.3125 320.601562 243.289062 319.160156 243.265625 C 313.386719 243.175781 308.078125 243.085938 303.371094 242.996094 L 303.371094 240.65625 C 308.078125 240.566406 313.363281 240.476562 319.160156 240.386719 C 320.601562 240.363281 322.089844 240.34375 323.578125 240.320312 C 324.335938 240.320312 325.089844 240.296875 325.867188 240.296875 L 326.378906 240.296875 C 326.378906 240.296875 326.378906 240.273438 326.378906 240.25 L 326.355469 240.070312 L 326.355469 239.800781 C 326.355469 239.601562 326.355469 239.398438 326.332031 239.195312 C 326.3125 238.386719 326.289062 237.574219 326.289062 236.765625 C 326.265625 235.125 326.222656 233.460938 326.199219 231.773438 C 325.976562 218.253906 325.886719 203.140625 325.886719 187.171875 C 325.886719 171.203125 325.976562 156.089844 326.199219 142.574219 C 326.222656 140.886719 326.265625 139.222656 326.289062 137.582031 C 326.3125 136.769531 326.332031 135.9375 326.332031 135.152344 C 326.332031 134.949219 326.332031 134.746094 326.355469 134.542969 L 326.355469 134.273438 L 326.378906 134.09375 C 326.378906 134.070312 326.378906 134.050781 326.378906 134.050781 L 325.867188 134.050781 C 325.089844 134.050781 324.335938 134.027344 323.578125 134.027344 C 322.070312 134.003906 320.601562 133.980469 319.160156 133.960938 C 313.363281 133.78125 308.078125 133.691406 303.371094 133.597656 Z M 303.371094 133.597656 "/></g></g></svg>